HIERARCHY
ROOT Hips
{
  OFFSET 40.9192 92.6879 18.85
  CHANNELS 6 Xposition Yposition Zposition Zrotation Xrotation Yrotation
  JOINT LeftUpLeg
  {
    OFFSET 8.64259 1.95398 -2.38835
    CHANNELS 3 Zrotation Xrotation Yrotation
    JOINT LeftLeg
    {
      OFFSET 43.7702 0 0
      CHANNELS 3 Zrotation Xrotation Yrotation
      JOINT LeftFoot
      {
        OFFSET 40.6238 0 0
        CHANNELS 3 Zrotation Xrotation Yrotation
        JOINT LeftToeBase
        {
          OFFSET 12.7242 0 0
          CHANNELS 3 Zrotation Xrotation Yrotation
          End Site
          {
            OFFSET 0 0 0
          }
        }
      }
    }
  }
  JOINT RightUpLeg
  {
    OFFSET -8.2249 1.95398 -2.59336
    CHANNELS 3 Zrotation Xrotation Yrotation
    JOINT RightLeg
    {
      OFFSET 43.5653 0 0
      CHANNELS 3 Zrotation Xrotation Yrotation
      JOINT RightFoot
      {
        OFFSET 40.6238 0 0
        CHANNELS 3 Zrotation Xrotation Yrotation
        JOINT RightToeBase
        {
          OFFSET 12.7242 0 0
          CHANNELS 3 Zrotation Xrotation Yrotation
          End Site
          {
            OFFSET 0 0 0
          }
        }
      }
    }
  }
  JOINT Spine
  {
    OFFSET 0.165834 0.87714 6.61349
    CHANNELS 3 Zrotation Xrotation Yrotation
    JOINT Spine1
    {
      OFFSET 7.38963 1.71661e-005 0
      CHANNELS 3 Zrotation Xrotation Yrotation
      JOINT Spine2
      {
        OFFSET 11.9445 1.14441e-005 0
        CHANNELS 3 Zrotation Xrotation Yrotation
        JOINT Spine3
        {
          OFFSET 14.7254 4.19617e-005 0
          CHANNELS 3 Zrotation Xrotation Yrotation
          JOINT Spine4
          {
            OFFSET 10.9679 0 0
            CHANNELS 3 Zrotation Xrotation Yrotation
            JOINT RightShoulder
            {
              OFFSET 2.46616 -1.6653 3.69651
              CHANNELS 3 Zrotation Xrotation Yrotation
              JOINT RightArm
              {
                OFFSET 13.0012 0 0
                CHANNELS 3 Zrotation Xrotation Yrotation
                JOINT RightForeArm
                {
                  OFFSET 28.7848 1.52588e-005 0
                  CHANNELS 3 Zrotation Xrotation Yrotation
                  JOINT RightHand
                  {
                    OFFSET 26.5688 1.52588e-005 0
                    CHANNELS 3 Zrotation Xrotation Yrotation
                    End Site
                    {
                      OFFSET 0 0 0
                    }
                  }
                }
              }
            }
            JOINT LeftShoulder
            {
              OFFSET 2.38034 -1.29275 -3.7523
              CHANNELS 3 Zrotation Xrotation Yrotation
              JOINT LeftArm
              {
                OFFSET 16.3182 6.10351e-005 0
                CHANNELS 3 Zrotation Xrotation Yrotation
                JOINT LeftForeArm
                {
                  OFFSET 27.0901 0 0
                  CHANNELS 3 Zrotation Xrotation Yrotation
                  JOINT LeftHand
                  {
                    OFFSET 24.5451 1.52588e-005 0
                    CHANNELS 3 Zrotation Xrotation Yrotation
                    End Site
                    {
                      OFFSET 0 0 0
                    }
                  }
                }
              }
            }
            JOINT Neck
            {
              OFFSET 5.0226 -0.0266342 0
              CHANNELS 3 Zrotation Xrotation Yrotation
              JOINT Head
              {
                OFFSET 6.69363 2.86102e-005 0
                CHANNELS 3 Zrotation Xrotation Yrotation
                End Site
                {
                  OFFSET 0 0 0
                }
              }
            }
          }
        }
      }
    }
  }
}
MOTION
Frames:	11
Frame Time:	0.0416667
-69.6202 66.7037 0.0214084 46.5922 -81.7857 47.957 -174.213 42.7524 101.421 -105.477 27.0937 1.25297 47.8678 -3.73428 4.25098 64.9485 38.2731 22.6308 145.112 63.9151 121.438 -95.3376 9.86457 0.103746 89.7548 -13.8568 -4.67848 31.918 0.219356 -1.69372 1.41344 11.0943 -90.905 4.70031 2.45386 -1.80617 -6.96974 2.37201 -1.91243 -29.5197 2.88315 -0.984839 -9.50706 2.88315 -0.984842 88.9328 -35.5741 -106.741 12.8385 0.0568036 -18.9614 -9.88673 -23.8293 -50.1339 -18.2618 -1.43619 3.83179 -96.4755 -39.2069 65.3146 -33.6423 13.6805 23.0888 2.458 7.46553 -36.7546 16.7905 0.891774 1.44534 6.6953 -10.0729 8.5799 23.4183 -12.6445 -5.3729 
-69.5677 64.5248 -1.17273 51.6269 -83.6316 53.7462 -175.996 42.8407 103.064 -109.347 28.4412 1.24651 48.7299 -3.09833 4.9067 69.5063 41.6229 20.0237 140.954 64.2712 125.823 -98.2265 9.92758 -0.29156 89.4503 -14.1382 -4.80821 32.4545 0.217511 -1.00757 1.57987 11.2846 -90.9543 4.32235 2.76924 -1.8917 -7.3472 2.68332 -2.01178 -29.9023 3.20963 -0.971425 -9.8896 3.20963 -0.971443 88.8864 -35.6152 -106.811 11.7651 -0.114762 -18.9872 -11.2952 -25.714 -50.4813 -19.3013 -1.67205 4.89886 -96.4675 -39.344 65.382 -34.0123 14.1747 23.3239 2.64852 8.11181 -37.0222 17.6904 1.04339 2.03177 6.84534 -10.0659 9.06786 23.2517 -12.9072 -6.11489 
-69.6645 62.4606 -2.50648 66.176 -84.909 69.2802 -179.141 43.4301 105.634 -113.302 28.7849 1.1911 48.8864 -2.98578 3.55131 71.3667 42.0991 17.5683 136.66 64.0079 130.191 -100.599 10.5533 -0.621746 89.1765 -14.3407 -4.9053 32.4137 0.172946 0.271509 1.73749 11.5196 -91.0588 3.85574 3.04579 -2.07824 -7.81351 2.95139 -2.21031 -30.3728 3.52942 -1.06607 -10.3601 3.52942 -1.06606 88.7977 -35.6757 -106.951 10.3453 -0.250433 -18.3658 -12.7141 -26.7547 -51.4457 -20.8971 -2.28536 7.59293 -96.3373 -39.18 65.5312 -34.3755 14.7553 23.4757 2.93564 8.84089 -37.27 17.8052 1.08405 2.22439 7.31199 -10.3202 9.01155 23.3763 -13.1757 -6.10055 
-69.6936 60.4841 -3.60702 80.316 -85.5958 84.2437 178.689 44.3664 107.657 -116.703 29.7074 1.02238 48.6193 -3.01236 4.49767 71.0346 42.0893 18.1258 131.901 64.0112 135.014 -102.905 11.163 -0.973789 88.8575 -14.4949 -4.99291 32.1943 0.14786 0.71613 1.87298 11.6996 -91.1384 3.49863 3.28772 -2.2173 -8.17031 3.18698 -2.3599 -30.7337 3.80193 -1.12576 -10.7211 3.80193 -1.12578 88.3746 -35.4258 -107.812 9.11042 -0.110964 -17.0328 -12.9474 -26.6359 -51.8237 -22.2816 -2.10391 6.14262 -96.3503 -39.6697 65.7022 -34.0749 14.9174 23.3843 2.7437 9.00576 -37.021 19.2057 1.25694 2.69463 7.6002 -10.5267 9.99996 23.1577 -13.8915 -7.45293 
-69.7489 58.6888 -4.65535 100.802 -86.0358 105.192 177.069 45.0815 109.302 -119.779 30.1455 0.846289 48.1826 -3.18959 4.41469 69.2187 42.3282 21.7426 128.28 64.0102 138.704 -104.879 10.368 -1.3613 88.4772 -14.5305 -5.0618 30.9487 0.14283 -0.773593 2.03631 11.8832 -91.1487 3.13371 3.61311 -2.21772 -8.53437 3.51203 -2.37468 -31.1054 4.11234 -1.02799 -11.0928 4.11234 -1.02799 88.6525 -35.0422 -107.444 8.99912 -0.128075 -16.5578 -13.141 -27.1837 -51.9252 -23.3982 -2.35463 6.97808 -96.2991 -39.3871 65.6754 -34.0681 14.7694 23.6224 2.23196 8.19 -36.9377 19.0686 1.292 2.92293 7.15269 -10.8568 9.37139 23.8495 -14.0207 -7.07724 
-69.8472 57.1146 -5.54657 114.381 -85.745 119.326 174.356 45.8698 111.021 -122.28 30.3431 0.643293 46.977 -4.14794 3.11545 70.5252 43.3706 21.1941 124.547 64.0638 142.652 -106.395 11.2218 -1.6735 87.4926 -14.3791 -5.05079 31.7493 0.156395 -0.198211 2.10742 12.0235 -91.1787 2.85419 3.74576 -2.26061 -8.81361 3.64266 -2.42338 -31.3877 4.25172 -1.02887 -11.375 4.25173 -1.02887 88.5758 -34.3602 -107.838 9.13503 -0.260921 -15.7954 -13.7895 -27.6508 -51.7118 -25.8447 -2.61249 7.25706 -96.329 -39.5511 65.6904 -34.0356 14.6222 23.7492 2.08065 8.16584 -36.4609 19.0644 1.32844 3.11623 6.63633 -10.9772 9.21887 24.8191 -14.1452 -7.10415 
-70.0063 55.7344 -6.2963 119.611 -85.2855 124.949 171.114 46.612 112.938 -124.399 31.6742 0.334799 46.235 -5.18055 1.93222 71.3075 43.1489 19.4663 121.311 64.2332 146.42 -107.865 10.5137 -1.92434 87.2433 -14.4551 -6.37394 30.3736 0.163107 -1.6508 2.15158 12.1531 -91.1961 2.59566 3.82934 -2.27947 -9.07194 3.72532 -2.44589 -31.648 4.33709 -1.02161 -11.6353 4.33707 -1.02163 88.7138 -34.1737 -107.651 9.05427 0.152323 -15.7185 -14.3428 -28.0974 -52.2451 -26.3866 -2.74208 7.64252 -96.2012 -39.4303 65.853 -34.15 14.6126 23.7616 2.06384 8.23515 -36.2647 18.8198 1.30706 3.09052 6.84779 -11.2307 9.79511 24.8377 -14.8134 -8.28533 
-70.0732 54.578 -6.95715 123.067 -84.8182 128.776 168.132 47.3192 114.577 -126.112 31.9808 0.100991 45.6114 -5.74398 0.549344 70.627 44.2929 22.5443 117.974 64.4202 149.863 -108.983 11.0296 -2.19516 86.4104 -14.2467 -6.43352 30.6237 0.122004 -0.617813 2.1852 12.2453 -91.2318 2.41196 3.88413 -2.3381 -9.2556 3.77749 -2.5069 -31.8326 4.40694 -1.06102 -11.82 4.40696 -1.06102 88.7702 -33.883 -107.654 9.01602 0.0435116 -15.0387 -14.3054 -27.7999 -52.5715 -27.7644 -2.79548 7.37522 -96.3339 -39.6064 65.7042 -34.1961 14.4228 24.1458 1.67044 7.6872 -36.0782 19.1866 1.31622 3.00854 6.58367 -11.359 9.61048 25.5453 -14.895 -8.11299 
-70.074 53.5059 -7.50814 125.881 -84.5302 131.862 165.531 48.0661 116.132 -127.604 33.4528 -0.199867 45.1334 -6.45767 0.656606 70.0363 44.4201 23.7813 114.7 64.5304 153.11 -110.099 11.2686 -2.42713 85.6579 -14.0361 -6.49283 30.836 0.122759 -0.423378 2.21641 12.3461 -91.2325 2.21037 3.94789 -2.32711 -9.45697 3.84167 -2.49873 -32.0357 4.46444 -1.03127 -12.0231 4.46445 -1.03127 89.0655 -33.5252 -107.235 9.31072 -0.176046 -14.9135 -13.8382 -27.1186 -52.7659 -27.9484 -2.82598 7.38476 -95.9964 -39.5802 66.2473 -34.3099 13.9632 24.2934 1.76801 7.61191 -35.9587 19.3706 1.33512 3.04328 7.03111 -11.3927 9.58088 25.8016 -15.0289 -8.33066 
-70.0224 52.5469 -7.97159 131.282 -84.311 137.538 162.284 48.155 118.368 -128.848 34.196 -0.495796 45.1881 -7.34424 -3.33234 69.6762 44.234 24.1125 112.338 64.212 155.344 -110.896 11.5527 -2.62415 85.5392 -14.0117 -6.5303 29.9226 0.0698163 -0.234931 2.27121 12.4393 -91.232 2.02433 4.05904 -2.31318 -9.64266 3.95333 -2.48973 -32.2245 4.56626 -0.984384 -12.2119 4.56626 -0.984391 89.0561 -33.4066 -107.297 9.34154 -0.59826 -14.4703 -13.6561 -26.6681 -52.9053 -30.0496 -3.01569 7.40142 -96.1701 -39.5862 65.9648 -34.3877 13.4675 24.8191 1.78413 7.46068 -35.6741 19.3548 1.3594 3.17391 6.69494 -11.6493 9.40437 26.5992 -15.2897 -8.34726 
-69.9985 51.6774 -8.36029 133.797 -83.8196 140.262 159.416 48.2697 119.924 -129.51 38.1841 -1.04293 43.0932 -10.2483 -3.05953 70.3216 44.8721 24.0143 110.128 64.1584 157.502 -111.763 11.8113 -2.81155 84.8272 -13.7708 -6.56494 29.8864 0.0540777 0.0241687 2.26589 12.5195 -91.2213 1.86339 4.05388 -2.28316 -9.80356 3.94949 -2.45952 -32.3855 4.55231 -0.957304 -12.3728 4.55231 -0.957324 89.0297 -33.6274 -107.265 9.16989 -1.12482 -13.7467 -13.7617 -26.292 -54.26 -32.1192 -3.24533 7.54287 -95.8536 -39.3695 66.401 -34.6427 13.3859 25.247 1.42372 7.04817 -35.4791 19.687 1.41542 3.34487 7.11617 -11.484 9.38864 26.1552 -15.2513 -8.82722 
